<svg width="512" height="512" viewBox="0 0 512 512" fill="none" xmlns="http://www.w3.org/2000/svg">
<path d="M467.51 248.83C449.11 165.65 421.82 112.59 378.08 99.66C369.609 97.1888 360.824 95.956 352 96C325.11 96 303.89 112 256 112C208.11 112 186.85 96 160 96C150.807 95.9524 141.653 97.1842 132.8 99.66C89 112.59 61.94 165.7 43.33 248.83C24.33 333.74 27.77 400.83 64.91 413.71C90.91 422.71 114.16 404.1 136.18 376.71C161.18 345.51 191.97 335.91 256 335.91C320.03 335.91 349.62 345.51 374.66 376.71C396.66 404.12 420.77 422.5 446.08 413.87C487.1 399.86 486.52 334.74 467.51 248.83Z" fill="#443E30" fill-opacity="0.75" stroke="#D6B05C" stroke-width="32" stroke-miterlimit="10"/>
<path d="M292 204.5C302.77 204.5 311.5 213.23 311.5 224C311.5 234.77 302.77 243.5 292 243.5C281.23 243.5 272.5 234.77 272.5 224C272.5 213.23 281.23 204.5 292 204.5Z" fill="#D6B05C" stroke="#D6B05C"/>
<path d="M332.226 248.869C335.775 248.169 339.444 248.471 342.824 249.733L343.496 249.998C347.058 251.481 350.1 253.989 352.237 257.202C354.24 260.214 355.364 263.72 355.488 267.326L355.5 268.049C355.487 273.051 353.554 277.85 350.109 281.46L349.771 281.806C346.116 285.452 341.163 287.5 336 287.5L335.277 287.486C331.672 287.353 328.168 286.221 325.161 284.21C322.154 282.199 319.77 279.394 318.269 276.113L317.979 275.451C316.597 272.108 316.174 268.451 316.75 264.889L316.878 264.178C317.587 260.63 319.268 257.355 321.727 254.714L322.229 254.194C324.79 251.639 328.008 249.85 331.52 249.021L332.226 248.869Z" fill="#D6B05C" stroke="#D6B05C"/>
<path d="M336 160.5C346.77 160.5 355.5 169.23 355.5 180C355.5 190.77 346.77 199.5 336 199.5C325.23 199.5 316.5 190.77 316.5 180C316.5 169.23 325.23 160.5 336 160.5Z" fill="#D6B05C" stroke="#D6B05C"/>
<path d="M380 204.5C390.77 204.5 399.5 213.23 399.5 224C399.5 234.77 390.77 243.5 380 243.5C369.23 243.5 360.5 234.77 360.5 224C360.5 213.23 369.23 204.5 380 204.5Z" fill="#D6B05C" stroke="#D6B05C"/>
<path d="M160 176V272V176ZM208 224H112H208Z" fill="#443E30" fill-opacity="0.75"/>
<path d="M160 176V272M208 224H112" stroke="#D6B05C" stroke-width="32" stroke-linecap="round" stroke-linejoin="round"/>
</svg>
