<svg width="3033" height="3039" viewBox="0 0 3033 3039" fill="none" xmlns="http://www.w3.org/2000/svg">
<path d="M2317.9 414.723C2446.94 411.919 2584.4 479 2637 512.891C2634.66 507.047 2609.57 467.08 2507.25 376.155C2381.01 263.965 2111 92.1723 1872.55 39.583C1635.48 -12.7019 1535.91 -5.99477 1297.46 18.5471C1106.7 38.1806 902.378 127.232 824.062 169.304C874.558 169.304 931.6 204.364 953.809 221.894C922.95 205.065 854.453 207.87 824.062 211.376C838.089 214.181 864.973 238.255 876.662 249.942C837.388 238.723 736.396 240.593 690.81 242.93C452.358 397.193 273.519 639.106 213.906 740.779C233.543 726.755 367.029 699.876 431.318 688.189C380.822 702.213 220.919 808.561 147.279 859.982C82.7569 958.15 26.8843 1251.48 7.0133 1385.88C51.8984 1332.59 130.915 1265.51 164.812 1238.63C72.237 1373.26 16.3644 1486.38 0 1526.12C1.16888 1589.23 11.9226 1751.2 45.5864 1894.25C79.2503 2037.29 192.866 2248.35 245.465 2336C461.475 2254.66 630.028 2094.09 687.303 2023.97C708.343 1971.38 722.37 1687.39 701.33 1445.48C684.498 1251.95 757.436 1051.64 796.009 975.68C746.916 1203.57 760.943 1301.74 785.489 1406.92C805.127 1491.06 821.725 1720.12 827.569 1824.13C866.844 1796.08 981.862 1475.87 1034.46 1319.27C986.771 1156.59 1014.59 854.139 1034.46 723.249C1023.24 841.05 1069.53 1038.79 1094.07 1122.93C1113.71 1047.2 1205.12 824.922 1248.37 723.249C1251.17 571.791 1289.28 491.854 1307.98 470.818C1288.34 512.89 1288.11 602.877 1290.45 642.612C1406.17 477.83 1525.39 376.157 1686.7 295.52C1815.74 231.01 2023.34 226.569 2111 232.412C2074.77 220.725 1985.46 194.547 1918.14 183.328C1833.98 169.304 1735.79 165.798 1644.62 172.81C1553.45 179.822 1448.25 197.352 1297.46 253.448C1146.67 309.543 992.382 421.735 901.209 502.372C828.271 566.882 683.797 739.61 620.677 817.91C646.392 775.839 714.655 673.464 781.983 600.54C866.142 509.384 981.862 390.181 1146.67 299.026C1311.49 207.87 1472.79 155.281 1644.62 137.751C1816.44 120.221 2058.4 155.281 2181.14 211.377C2279.32 256.253 2308.54 328.243 2310.88 358.628C2322.1 336.19 2324.91 307.207 2324.91 295.52C2336.13 343.202 2324.91 394.856 2317.9 414.723Z" fill="#D69F45"/>
<path d="M715.105 2624.1C586.061 2626.91 448.6 2559.8 396 2525.89C398.338 2531.74 423.435 2571.72 525.746 2662.68C651.986 2774.92 921.998 2946.79 1160.45 2999.4C1397.52 3051.71 1497.09 3045 1735.54 3020.45C1926.3 3000.8 2130.62 2911.71 2208.94 2869.62C2158.44 2869.62 2101.4 2834.55 2079.19 2817.01C2110.05 2833.85 2178.55 2831.04 2208.94 2827.53C2194.91 2824.73 2168.03 2800.64 2156.34 2788.95C2195.61 2800.18 2296.6 2798.3 2342.19 2795.97C2580.64 2641.64 2759.48 2399.62 2819.09 2297.9C2799.46 2311.93 2665.97 2338.82 2601.68 2350.52C2652.18 2336.49 2812.08 2230.09 2885.72 2178.65C2950.24 2080.44 3006.12 1786.98 3025.99 1652.53C2981.1 1705.84 2902.09 1772.95 2868.19 1799.84C2960.76 1665.15 3016.64 1551.98 3033 1512.23C3031.83 1449.09 3021.08 1287.05 2987.41 1143.94C2953.75 1000.84 2840.13 789.687 2787.53 702C2571.52 783.373 2402.97 944.016 2345.7 1014.17C2324.66 1066.78 2310.63 1350.88 2331.67 1592.9C2348.5 1786.51 2275.56 1986.91 2236.99 2062.9C2286.08 1834.92 2272.06 1736.71 2247.51 1631.48C2227.87 1547.3 2211.28 1318.15 2205.43 1214.09C2166.16 1242.15 2051.14 1562.5 1998.54 1719.17C2046.23 1881.92 2018.41 2184.5 1998.54 2315.44C2009.76 2197.59 1963.47 1999.77 1938.93 1915.59C1919.29 1991.35 1827.88 2213.72 1784.63 2315.44C1781.83 2466.96 1743.72 2546.94 1725.02 2567.98C1744.66 2525.89 1744.89 2435.86 1742.55 2396.11C1626.83 2560.97 1507.61 2662.68 1346.3 2743.35C1217.26 2807.89 1009.66 2812.33 921.998 2806.49C958.233 2818.18 1047.54 2844.37 1114.86 2855.59C1199.02 2869.62 1297.21 2873.13 1388.38 2866.12C1479.55 2859.1 1584.75 2841.56 1735.54 2785.44C1886.33 2729.32 2040.62 2617.08 2131.79 2536.41C2204.73 2471.88 2349.2 2299.07 2412.32 2220.74C2386.61 2262.83 2318.34 2365.25 2251.02 2438.2C2166.86 2529.4 2051.14 2648.65 1886.33 2739.85C1721.51 2831.04 1560.21 2883.65 1388.38 2901.19C1216.56 2918.73 974.597 2883.65 851.864 2827.53C753.678 2782.64 724.456 2710.62 722.119 2680.22C710.897 2702.67 708.092 2731.66 708.092 2743.35C696.871 2695.65 708.092 2643.97 715.105 2624.1Z" fill="#D69F45"/>
<path d="M1591.42 1591.54C1591.42 1623.57 1588.1 1651.01 1581.46 1673.86C1575.02 1696.71 1566.03 1716.15 1554.51 1732.16C1543.18 1748.18 1530.19 1761.85 1515.54 1773.18C1501.09 1784.7 1485.86 1795.15 1469.84 1804.53C1463.2 1808.24 1457.93 1806.97 1454.02 1800.72L1421.21 1748.28C1416.91 1741.25 1418.38 1735.58 1425.6 1731.29C1438.3 1723.86 1450.02 1714.68 1460.76 1703.75C1471.5 1692.61 1480.19 1678.16 1486.83 1660.39C1493.47 1642.42 1496.79 1619.47 1496.79 1591.54V1340.76C1496.79 1335.09 1497.77 1330.8 1499.72 1327.87C1508.51 1314.98 1520.82 1301.4 1536.64 1287.14C1539.57 1284.8 1542.11 1283.63 1544.25 1283.63C1546.6 1283.63 1549.04 1284.8 1551.58 1287.14C1560.17 1294.57 1567.4 1301.7 1573.26 1308.53C1579.12 1315.17 1584.2 1321.62 1588.49 1327.87C1590.45 1330.99 1591.42 1335.29 1591.42 1340.76V1591.54Z" fill="#D69F45"/>
<circle cx="1541.5" cy="1205.5" r="37.5" fill="#D69F45"/>
</svg>
